<svg xmlns="http://www.w3.org/2000/svg" data-name="Layer 1" width="987.9303" height="646.49701" style=""><rect id="backgroundrect" width="100%" height="100%" x="0" y="0" fill="none" stroke="none"/><g class="currentLayer" style=""><title>Layer 1</title><ellipse cx="190.0548858642578" cy="636.7996826171875" rx="190.0548858642578" ry="9.697330474853516" fill="#e6e6e6" id="svg_1"/><path d="M742.081298828125,392.01810455322266 l-31.512630462646484,4.085999965667725 l-1.605220079421997,0.207380011677742 l-41.94255065917969,5.437719821929932 L475.572021484375,426.57987213134766 c-8.18729019165039,-5.660439968109131 -15.913749694824219,-11.482179641723633 -23.087230682373047,-17.44215965270996 l219.090576171875,-12.94912052154541 l37.89500045776367,-2.242650032043457 l1.5898399353027344,-0.09216000139713287 z" fill="#e6e6e6" id="svg_2" transform=""/><path d="M603.06640625,237.64246368408203 L436.60955810546875,259.2320022583008 q7.2464399337768555,-6.163519859313965 15.130359649658203,-12.641900062561035 z" fill="#e6e6e6" id="svg_3" transform=""/><path d="M987.9303588867188,373.61588287353516 q-4.711870193481445,7.7763800621032715 -10.138059616088867,15.222519874572754 L833.1705932617188,370.08292388916016 L753.6018676757812,359.76050567626953 l78.27079010009766,4.631289958953857 z" fill="#e6e6e6" id="svg_4" transform=""/><path d="M919.9973754882812,445.4351577758789 C866.7646484375,483.5605239868164 795.6365966796875,506.8398208618164 717.5040893554688,506.8398208618164 c-63.9084587097168,0 -137.3636016845703,-21.889089584350586 -197.86965942382812,-53.708900451660156 c4.7848801612854,-12.403840065002441 11.45145034790039,-22.457429885864258 20.7216796875,-27.549530029296875 c0.23040001094341278,-0.13054998219013214 0.46849000453948975,-0.26114997267723083 0.7065999507904053,-0.37633001804351807 a29.29631996154785,29.29631996154785 0 0 1 12.780170440673828,-3.233459949493408 c54.53070068359375,-1.5360698699951172 48.38639831542969,59.90700149536133 116.74179077148438,-24.577220916748047 c42.51089096069336,-52.54148864746094 90.6668930053711,-70.62110900878906 123.58499908447266,-64.77632904052734 c0.6067399978637695,0.10754000395536423 1.2058299779891968,0.22273999452590942 1.8048700094223022,0.345630019903183 c19.07809066772461,3.9630799293518066 32.72610092163086,16.17490005493164 36.666141510009766,34.47721862792969 c10.752530097961426,49.92247009277344 -20.73699951171875,89.86045837402344 36.86582946777344,77.57185363769531 A119.13899993896484,119.13899993896484 0 0 1 919.9973754882812,445.4351577758789 z" fill="#6c63ff" id="svg_5" transform=""/><path d="M758.5098266601562,504.8021011352539 c-26.789079666137695,-14.934000015258789 -43.46615982055664,-35.323001861572266 -49.568458557128906,-60.599998474121094 c-4.531000137329102,-18.76742935180664 -3.228909969329834,-39.88623046875 3.8694400787353516,-62.769859313964844 A168.11399841308594,168.11399841308594 0 0 1 736.1891479492188,334.2099075317383 c54.252769470214844,-76.79325866699219 59.149391174316406,-126.83200073242188 53.703739166259766,-155.28692626953125 c-5.970669746398926,-31.200050354003906 -25.369260787963867,-44.15768814086914 -25.564640045166016,-44.284820556640625 l0.8374100923538208,-1.2878199815750122 c0.2002600133419037,0.13012999296188354 20.110000610351562,13.388919830322266 26.224300384521484,45.22200012207031 c3.5248000621795654,18.351909637451172 1.8664699792861938,39.277950286865234 -4.928860187530518,62.19647979736328 c-8.457420349121094,28.523170471191406 -24.94923973083496,60.259490966796875 -49.017189025878906,94.32769012451172 a166.59071350097656,166.59071350097656 0 0 0 -23.166000366210938,46.790321350097656 c-11.642080307006836,37.5318603515625 -13.289159774780273,89.09017181396484 44.97972869873047,121.57427978515625 z" fill="#3f3d56" id="svg_6" transform=""/><path d="M711.1187133789062,359.53421783447266 c-21.119550704956055,-11.772589683532715 -20.53152084350586,-30.430509567260742 -16.31930923461914,-44.00918960571289 a59.666419982910156,59.666419982910156 0 0 1 8.29800033569336,-16.76258087158203 c19.00632095336914,-26.903079986572266 20.723899841308594,-44.37969970703125 18.81805992126465,-54.30344009399414 c-2.0701100826263428,-10.77616024017334 -8.710559844970703,-15.200260162353516 -8.777310371398926,-15.243760108947754 l0.8370000720024109,-1.2878199815750122 c0.29513999819755554,0.1916399896144867 7.256609916687012,4.829870223999023 9.448590278625488,16.2420597076416 c2.8542699813842773,14.86011028289795 -3.562299966812134,33.52592086791992 -19.071569442749023,55.47951126098633 a58.12300109863281,58.12300109863281 0 0 0 -8.085780143737793,16.3305606842041 c-4.043819904327393,13.03639030456543 -4.619850158691406,30.941999435424805 15.600000381469727,42.21358871459961 z" fill="#3f3d56" id="svg_7" transform=""/><path d="M806.137939453125,195.1747817993164 l-0.7477900385856628,-1.3418200016021729 c20.219879150390625,-11.271940231323242 19.643850326538086,-29.177570343017578 15.600000381469727,-42.213218688964844 a58.12548065185547,58.12548065185547 0 0 0 -8.085769653320312,-16.33094024658203 c-15.509269714355469,-21.953210830688477 -21.925840377807617,-40.619388580322266 -19.071569442749023,-55.47949981689453 c2.191999912261963,-11.412190437316895 9.153499603271484,-16.0504207611084 9.448590278625488,-16.242069244384766 l0.838170051574707,1.2870800495147705 c-0.06713000684976578,0.0442500039935112 -6.741340160369873,4.526470184326172 -8.790060043334961,15.305259704589844 c-1.884850025177002,9.918109893798828 -0.14850999414920807,27.379730224609375 18.829679489135742,54.24269104003906 a59.673828125,59.673828125 0 0 1 8.29800033569336,16.762210845947266 C826.66943359375,164.7431411743164 827.2574462890625,183.40106964111328 806.137939453125,195.1747817993164 z" fill="#3f3d56" id="svg_8" transform=""/><path d="M851.229736328125,118.75273895263672 a23.041149139404297,23.041149139404297 0 0 1 -38.60145950317383,-25.1695499420166 l0.006560000125318766,-0.010000000707805157 c6.95313024520874,-10.657690048217773 41.959049224853516,-22.145610809326172 41.959049224853516,-22.145610809326172 S858.1829223632812,108.09503936767578 851.229736328125,118.75273895263672 z" fill="#6c63ff" id="svg_9" transform=""/><path d="M842.7813110351562,47.32518768310547 a23.041149139404297,23.041149139404297 0 0 1 -38.60145950317383,-25.1695499420166 l0.006560000125318766,-0.010000000707805157 c6.95313024520874,-10.657690048217773 41.95906066894531,-22.145620346069336 41.95906066894531,-22.145620346069336 S849.7344970703125,36.667518615722656 842.7813110351562,47.32518768310547 z" fill="#6c63ff" id="svg_10" transform=""/><path d="M841.6881713867188,263.54065704345703 c-1.4746201038360596,-0.345630019903183 -36.25910186767578,-8.433070182800293 -47.856449127197266,-2.91087007522583 a23.80970001220703,23.80970001220703 0 0 0 10.276350021362305,45.30656051635742 a23.42745018005371,23.42745018005371 0 0 0 5.145870208740234,-0.568340003490448 a23.88265037536621,23.88265037536621 0 0 0 5.053699970245361,-1.74344003200531 c11.597359657287598,-5.529880046844482 27.234649658203125,-37.63386917114258 27.89514923095703,-39.000999450683594 l0.4224100410938263,-0.8601999878883362 zM813.6471557617188,302.2344436645508 a22.271690368652344,22.271690368652344 0 1 1 -19.154869079589844,-40.214481353759766 c2.703510046005249,-1.2903000116348267 6.835559844970703,-1.774169921875 11.55128002166748,-1.774169921875 c12.902999877929688,0 30.153179168701172,3.6481800079345703 34.3466911315918,4.577499866485596 c-2.61899995803833,5.253399848937988 -16.65106964111328,32.60319900512695 -26.743099212646484,37.411128997802734 z" fill="#3f3d56" id="svg_11" transform=""/><path d="M737.0103149414062,133.06009674072266 a23.713850021362305,23.713850021362305 0 0 1 -16.03125,-6.2046799659729 c-9.493220329284668,-8.656180381774902 -15.128250122070312,-43.92142868041992 -15.363759994506836,-45.41851043701172 l-0.14850999414920807,-0.9465400576591492 l0.9563000202178955,0.06075000390410423 c1.5120799541473389,0.09637999534606934 37.147098541259766,2.461250066757202 46.64031982421875,11.117429733276367 h0 a23.798620223999023,23.798620223999023 0 0 1 -16.05299949645996,41.39154052734375 zm-29.718719482421875,-50.906150817871094 c0.9825500249862671,5.782790184020996 6.463819980621338,36.03628921508789 14.722479820251465,43.5666618347168 a22.273300170898438,22.273300170898438 0 0 0 30.014240264892578,-32.917240142822266 h0 C743.7696533203125,85.27373504638672 713.140380859375,82.60022735595703 707.2915649414062,82.1539535522461 z" fill="#3f3d56" id="svg_12" transform=""/><path d="M704.927490234375,188.2408218383789 a23.041149139404297,23.041149139404297 0 1 1 -31.049100875854492,34.05189895629883 c-9.403169631958008,-8.574000358581543 -15.122159957885742,-44.97011947631836 -15.122159957885742,-44.97011947631836 S695.5242309570312,179.6668472290039 704.927490234375,188.2408218383789 z" fill="#6c63ff" id="svg_13" transform=""/><path d="M775.5447387695312,189.08704376220703 a13.172149658203125,13.172149658203125 0 0 0 -12.818559646606445,-10.376199722290039 a13.462530136108398,13.462530136108398 0 0 0 -2.810999870300293,0.3072100281715393 c-6.866209983825684,1.4900000095367432 -19.07040023803711,16.443689346313477 -19.584999084472656,17.073490142822266 l-0.6067299842834473,0.7450000047683716 l0.8601999878883362,0.4300999939441681 c0.6758800148963928,0.3379400074481964 15.376139640808105,7.618949890136719 23.071849822998047,7.618949890136719 a8.486590385437012,8.486590385437012 0 0 0 1.8278800249099731,-0.17666001617908478 a13.146300315856934,13.146300315856934 0 0 0 10.06128978729248,-15.6218900680542 zm-3.0875298976898193,9.062840461730957 a11.487720489501953,11.487720489501953 0 0 1 -7.304049968719482,5.061369895935059 c-5.514500141143799,1.1981300115585327 -19.385269165039062,-5.168910026550293 -23.010440826416016,-6.896999835968018 c2.5806000232696533,-3.072160005569458 12.580470085144043,-14.600419998168945 18.102670669555664,-15.79854965209961 a11.607529640197754,11.607529640197754 0 0 1 12.211819648742676,17.634140014648438 z" fill="#3f3d56" id="svg_14" transform=""/><path d="M179.56195068359375,379.06287384033203 l40.141151428222656,-40.14120864868164 a10.62932014465332,10.62932014465332 0 0 1 17.727859497070312,4.565999984741211 v0.00007000000186963007 a10.62876033782959,10.62876033782959 0 0 1 -2.695549964904785,10.466190338134766 l-25.627199172973633,25.627269744873047 l35.766510009765625,28.509540557861328 l-0.018219999969005585,0.027080003172159195 c0.17920002341270447,-0.008729999884963036 0.3553600013256073,-0.027080003172159195 0.536579966545105,-0.027080003172159195 A10.885470390319824,10.885470390319824 0 1 1 234.51016235351562,419.0251235961914 z" fill="#a0616a" id="svg_15" transform=""/><polygon points="298.107 626.991 310.014 622.546 298.535 574.503 280.961 581.063 298.107 626.991" fill="#a0616a" id="svg_16"/><path d="M1375.3978576660156,1925.1790161132812 H1415.3430786132812 l0,0 v15.433380126953125 l0,0 H1390.2847290039062 a14.886859893798828,14.886859893798828 0 0 1 -14.886859893798828,-14.886859893798828 v-0.5465200543403625 L1375.3978576660156,1925.1790161132812 z" transform="rotate(159.528 973.64 1181.36)" fill="#2f2e41" id="svg_17"/><polygon points="190.985 623.171 203.695 623.17 209.742 574.146 190.983 574.147 190.985 623.171" fill="#a0616a" id="svg_18"/><path d="M816.8357543945312,2127.5381469726562 H856.7809448242188 l0,0 v15.433380126953125 l0,0 H831.7225952148438 A14.886859893798828,14.886859893798828 0 0 1 816.8357543945312,2128.0846557617188 v-0.5465200543403625 L816.8357543945312,2127.5381469726562 z" transform="rotate(179.997 522.539 1381.25)" fill="#2f2e41" id="svg_19"/><path d="M223.10379028320312,393.57682037353516 s31.101320266723633,-5.183549880981445 41.46841812133789,7.256999969482422 l44.060211181640625,203.71363830566406 l-24.881059646606445,3.1101300716400146 s-8.293680191040039,-105.74449157714844 -49.76211166381836,-133.7356719970703 c0,0 -30.06460952758789,93.30394744873047 -24.881000518798828,135.80909729003906 l-21.77092933654785,-2.0734200477600098 S180.59866333007812,428.82498931884766 223.10379028320312,393.57682037353516 z" fill="#2f2e41" id="svg_20" transform=""/><path d="M287.7269592285156,467.10575103759766 l3.5679500102996826,-4.682000160217285 l-0.5852499604225159,-0.44600000977516174 l2.4055399894714355,-3.1566600799560547 a7.068349838256836,7.068349838256836 0 0 0 -1.3377200365066528,-9.906259536743164 l-0.00014000000373926014,-0.00012000000424450263 l-8.65408992767334,-6.594880104064941 a7.068359851837158,7.068359851837158 0 0 0 -9.906310081481934,1.3374900817871094 l-0.00012000000424450263,0.00016000001050997525 L252.796142578125,470.4544448852539 a7.068379878997803,7.068379878997803 0 0 0 1.337670087814331,9.906310081481934 l0.0001500000071246177,0.00014000000373926014 l8.65410041809082,6.594860076904297 a7.0684099197387695,7.0684099197387695 0 0 0 9.906350135803223,-1.3375599384307861 l0.00009000000864034519,-0.00014000000373926014 l9.541330337524414,-12.520560264587402 l0.5852499604225159,0.44600000977516174 l3.5678999423980713,-4.682000160217285 l-0.5852499604225159,-0.44600000977516174 l1.3380000591278076,-1.7557200193405151 z" fill="#e6e6e6" id="svg_21" transform=""/><circle cx="280.76043701171875" cy="454.39593505859375" r="3.6790599822998047" fill="#fff" id="svg_22"/><circle cx="230.6328125" cy="288.2283630371094" r="24.5610294342041" fill="#a0616a" id="svg_23"/><path d="M206.51641845703125,334.4843215942383 s22.80763053894043,-26.954479217529297 41.46841812133789,-5.183559894561768 l0,0 a74.11253356933594,74.11253356933594 0 0 1 17.809450149536133,50.43223190307617 l-0.7037400007247925,23.692550659179688 l-43.02349090576172,-6.738619804382324 z" fill="#ccc" id="svg_24" transform=""/><path d="M239.11181640625,327.56351470947266 a11.159810066223145,11.159810066223145 0 0 0 -10.835100173950195,13.144160270690918 l23.538850784301758,130.272216796875 l-0.13084998726844788,0.1791900247335434 A10.66940975189209,10.66940975189209 0 0 0 255.87814331054688,487.1865005493164 h0 a10.825650215148926,10.825650215148926 0 0 0 13.443320274353027,-3.999000072479248 a10.619099617004395,10.619099617004395 0 0 0 -2.1029999256134033,-13.856889724731445 l-0.15338002145290375,-0.1295900046825409 l-16.73468017578125,-131.88299560546875 a11.154069900512695,11.154069900512695 0 0 0 -11.069470405578613,-9.755609512329102 C239.21151733398438,327.5624465942383 239.16140747070312,327.5624465942383 239.11181640625,327.56351470947266 z" fill="#a0616a" id="svg_25" transform=""/><path d="M234.6141357421875,292.47745513916016 l10.55232048034668,-12.431650161743164 c2.719449996948242,-3.203779935836792 5.563920021057129,-6.6933698654174805 5.948520183563232,-10.878060340881348 c0.42160001397132874,-4.5872297286987305 -2.368579864501953,-9.046130180358887 -6.1830902099609375,-11.62876033782959 s-8.498550415039062,-3.5545201301574707 -13.091290473937988,-3.911139965057373 c-8.518199920654297,-0.6614300012588501 -17.48171043395996,0.7462799549102783 -24.48419952392578,5.641419887542725 s-11.583789825439453,13.732629776000977 -9.87637996673584,22.104129791259766 c1.3444000482559204,6.591660022735596 6.298279762268066,12.906089782714844 4.372809886932373,19.351999282836914 c-2.106800079345703,7.052999973297119 -10.746649742126465,9.216919898986816 -17.80072021484375,11.320150375366211 c-11.8403902053833,3.5303099155426025 -23.146390914916992,10.480210304260254 -29.351579666137695,21.164480209350586 s-6.1780900955200195,25.41670036315918 2.0935800075531006,34.59479904174805 c5.356130123138428,5.943059921264648 13.434439659118652,8.948410034179688 21.42215919494629,9.400659561157227 s15.938170433044434,-1.4289300441741943 23.51357078552246,-4.00216007232666 c6.9765801429748535,-2.3698201179504395 13.877920150756836,-5.417920112609863 19.37047004699707,-10.32919979095459 s9.44929027557373,-11.939459800720215 9.277999877929688,-19.305559158325195 c-0.1632000058889389,-7.019899845123291 -3.9235501289367676,-13.414469718933105 -5.4682698249816895,-20.264249801635742 a33.2551383972168,33.2551383972168 0 0 1 10.39525032043457,-31.729999542236328 " fill="#2f2e41" id="svg_26" transform=""/><path d="M217.8458251953125,251.8840103149414 l6.647359848022461,-1.3043700456619263 a4.263390064239502,4.263390064239502 0 0 1 5.004539966583252,3.362689971923828 l9.191800117492676,30.843290328979492 h0 l-15.0145902633667,2.946229934692383 h0 L214.483154296875,256.8885269165039 A4.263400077819824,4.263400077819824 0 0 1 217.8458251953125,251.8840103149414 z" fill="#6c63ff" id="svg_27" transform=""/><circle cx="232.47207641601562" cy="290.19659423828125" r="12.089859962463379" fill="#fff" id="svg_28"/><circle cx="232.47207641601562" cy="290.19659423828125" r="6.71658992767334" fill="#6c63ff" id="svg_29"/></g></svg>